<?xml version="1.0" standalone="no"?>
<!DOCTYPE svg PUBLIC "-//W3C//DTD SVG 20010904//EN"
 "http://www.w3.org/TR/2001/REC-SVG-20010904/DTD/svg10.dtd">
<svg version="1.0" xmlns="http://www.w3.org/2000/svg"
 width="512.000000pt" height="512.000000pt" viewBox="0 0 512.000000 512.000000"
 preserveAspectRatio="xMidYMid meet">
<metadata>
Created by potrace 1.14, written by Peter Selinger 2001-2017
</metadata>
<g transform="translate(0.000000,512.000000) scale(0.100000,-0.100000)"
fill="#000000" stroke="none">
<path d="M2910 4426 c-723 -46 -1373 -88 -1445 -95 -71 -6 -341 -24 -600 -41
-259 -17 -485 -33 -503 -36 -19 -3 -49 -20 -68 -37 -61 -55 -58 -78 36 -353
75 -221 83 -251 101 -399 l21 -160 39 -40 39 -40 0 55 c0 30 -11 213 -24 407
-14 194 -21 367 -17 385 16 70 55 120 116 151 21 10 100 20 250 31 121 9 281
21 356 26 74 6 148 10 165 10 l29 0 54 -192 54 -193 251 -190 251 -190 7 -84
c4 -46 8 -85 10 -87 2 -2 235 19 518 46 283 27 915 88 1403 135 489 47 895 85
903 85 11 0 14 18 14 88 l0 87 -138 173 c-137 170 -138 173 -182 294 -65 180
-126 238 -260 244 -36 2 -657 -35 -1380 -80z"/>
<path d="M970 4198 c-318 -22 -342 -29 -387 -105 -32 -55 -32 -36 1 -701 24
-477 25 -483 50 -526 16 -27 41 -51 70 -66 l45 -24 535 27 c377 19 546 31 569
40 39 17 94 77 103 114 7 28 -4 386 -15 486 l-6 58 -115 85 c-137 101 -127
115 -111 -151 7 -129 7 -192 0 -220 -14 -50 -64 -100 -114 -114 -66 -18 -583
-49 -628 -38 -50 13 -103 66 -116 114 -5 21 -15 178 -22 349 l-13 310 25 44
c42 77 76 87 339 100 124 6 226 13 227 14 2 1 -12 53 -30 114 l-32 112 -50 -1
c-27 -1 -174 -10 -325 -21z"/>
<path d="M4725 3554 c-71 -7 -686 -65 -1365 -128 -679 -64 -1256 -119 -1282
-122 l-48 -6 0 -177 0 -177 -35 -58 c-19 -32 -35 -59 -35 -60 0 -1 145 15 322
36 178 21 553 65 833 97 281 33 764 90 1074 126 l564 66 58 51 59 51 0 158 c0
88 -3 158 -7 158 -5 -1 -66 -8 -138 -15z"/>
<path d="M3275 2911 c-462 -58 -839 -110 -838 -114 2 -12 251 -205 288 -224
58 -31 154 -27 625 26 250 28 471 56 491 61 68 19 117 64 229 209 60 79 110
145 110 147 0 9 -103 -3 -905 -105z"/>
<path d="M3330 2534 c-157 -18 -286 -33 -287 -33 -2 -1 -3 -77 -3 -171 l0
-170 325 0 325 0 0 205 0 205 -37 -1 c-21 -1 -166 -16 -323 -35z"/>
<path d="M2745 2114 c-44 -8 -519 -82 -1055 -164 -536 -83 -988 -155 -1003
-162 -52 -20 -57 -46 -57 -285 0 -239 2 -248 60 -278 45 -23 64 -19 194 40
l121 55 775 115 c426 63 787 118 802 121 21 4 56 46 162 194 l136 190 0 95 0
95 -27 -1 c-16 -1 -64 -8 -108 -15z"/>
<path d="M3023 2080 c-47 -19 -57 -87 -18 -125 l24 -25 330 0 c224 0 338 4
355 11 13 7 30 25 37 40 15 37 -2 82 -37 98 -30 13 -657 14 -691 1z"/>
<path d="M349 1923 c0 -21 -1 -193 -1 -383 l1 -345 76 -275 c41 -151 78 -283
81 -292 5 -17 26 -18 250 -18 l244 0 0 166 c0 139 2 165 14 161 354 -136 608
-208 896 -253 161 -26 489 -26 615 -1 280 57 493 166 662 340 119 123 204 261
266 432 28 79 72 269 82 358 l6 57 -105 0 c-58 0 -106 -2 -106 -4 0 -2 -7 -42
-15 -90 -29 -166 -106 -365 -188 -486 -45 -67 -164 -187 -227 -230 -164 -111
-338 -164 -585 -176 -341 -17 -826 92 -1202 272 -101 48 -112 56 -115 82 l-3
29 -104 -48 c-155 -73 -238 -64 -289 32 -23 43 -23 49 -20 271 3 212 4 228 24
255 37 49 74 63 236 86 l153 23 3 37 3 37 -325 0 -326 0 -1 -37z"/>
</g>
</svg>
